<?xml version="1.0" encoding="utf-8"?>
<!-- Generator: Adobe Illustrator 21.0.0, SVG Export Plug-In . SVG Version: 6.00 Build 0)  -->
<svg version="1.1" id="Layer_1" xmlns="http://www.w3.org/2000/svg" xmlns:xlink="http://www.w3.org/1999/xlink" x="0px" y="0px"
	 width="512px" height="512px" viewBox="0 0 512 512" style="enable-background:new 0 0 512 512;" xml:space="preserve">
<g>
	<path d="M507.1,142.2L345.2,80.5c-3.9-1.5-8.3,0.5-9.8,4.4s0.5,8.3,4.4,9.8l143.3,54.6l-99.2,37.8l-124.7-56.5
		c-3.8-1.7-8.3,0-10.1,3.8c-1.7,3.8,0,8.3,3.8,10.1l111,50.3L256,235.9L28.9,149.3L256,62.7L312,84c3.9,1.5,8.3-0.5,9.8-4.4
		s-0.5-8.3-4.4-9.8l-58.7-22.4c-1.7-0.7-3.7-0.7-5.4,0L4.9,142.2c-2.9,1.1-4.9,4-4.9,7.1V184c0,3.2,1.9,6,4.9,7.1l77.6,29.6v26.4
		c0,4.2,3.4,7.6,7.6,7.6s7.6-3.4,7.6-7.6v-20.6l155.6,59.3c0.9,0.3,1.8,0.5,2.7,0.5s1.8-0.2,2.7-0.5L376,241.1v120.3
		c-36.8,19.3-78.1,29.7-120,29.7c-57.2,0-113.3-19.3-158.3-54.3v-59.3c0-4.2-3.4-7.6-7.6-7.6s-7.6,3.4-7.6,7.6v63
		c0,2.3,1,4.5,2.8,5.9c48.2,38.7,108.9,59.9,170.7,59.9c41.7,0,82.8-9.7,120-27.9v30.8c-12.3,3.3-21.3,14.6-21.3,27.9
		c0,15.9,13,28.9,28.9,28.9s28.9-13,28.9-28.9c0-13.3-9-24.5-21.3-27.9v-38.8c12.4-7.1,24.3-15.1,35.5-24.1c1.8-1.4,2.9-3.6,2.9-5.9
		V220.7l77.6-29.6c2.9-1.1,4.9-3.9,4.9-7.1v-34.7C512,146.2,510.1,143.3,507.1,142.2z M397.3,437.2c0,7.5-6.1,13.7-13.7,13.7
		c-7.5,0-13.7-6.1-13.7-13.7c0-7.5,6.1-13.7,13.7-13.7C391.2,423.5,397.3,429.6,397.3,437.2z M15.2,160.3l233.2,88.9v18.4
		L15.2,178.8V160.3z M263.6,267.7v-18.4L376,206.4v18.4L263.6,267.7z M414.3,336.8c-7.4,5.8-15.1,11.1-23.1,16V235.3l23.1-8.8V336.8
		z M391.2,219v-18.4l105.6-40.3v18.4L391.2,219z"/>
	<path d="M383.6,467c-16.5,0-29.9-13.4-29.9-29.9c0-13.3,8.7-24.9,21.3-28.7V380c-37.1,17.9-78.2,27.3-119,27.3
		c-62.2,0-123-21.4-171.3-60.1c-2-1.5-3.2-4-3.2-6.7v-63c0-4.7,3.9-8.6,8.6-8.6s8.6,3.9,8.6,8.6v58.8
		c44.8,34.7,100.6,53.8,157.3,53.8c41.1,0,82.2-10.1,119-29.3V242.6l-115.9,44.2c-2.3,0.8-3.8,0.8-6.1,0L98.7,228v19.1
		c0,4.7-3.9,8.6-8.6,8.6s-8.6-3.9-8.6-8.6v-25.7L4.5,192c-3.4-1.2-5.5-4.4-5.5-8v-34.7c0-3.5,2.3-6.8,5.5-8l248.4-94.8
		c1.9-0.8,4.2-0.8,6.1,0l58.7,22.4c4.4,1.7,6.7,6.7,5,11.1c-1.7,4.4-6.7,6.7-11.1,5L256,63.8L31.7,149.3L256,234.8l105.3-40.1
		l-108.8-49.3c-4.3-2-6.2-7.1-4.3-11.4c2-4.3,7.2-6.2,11.4-4.3L383.9,186l96.4-36.7L339.4,95.6c-4.4-1.7-6.7-6.7-5-11.1
		c1.7-4.4,6.7-6.7,11.1-5l161.9,61.7c3.3,1.2,5.5,4.4,5.6,8l0,34.7c0,3.5-2.2,6.8-5.5,8l-77,29.4v119c0,2.6-1.2,5.1-3.3,6.7
		c-10.7,8.6-22.5,16.7-35.1,23.9v37.5c12.6,3.8,21.3,15.5,21.3,28.7C413.5,453.6,400.1,467,383.6,467z M377,376.8V410l-0.7,0.2
		c-12.1,3.2-20.6,14.3-20.6,26.9c0,15.4,12.5,27.9,27.9,27.9c15.4,0,27.9-12.5,27.9-27.9c0-12.5-8.5-23.6-20.6-26.9l-0.7-0.2v-40.1
		l0.5-0.3c12.7-7.3,24.6-15.3,35.4-24c1.6-1.2,2.5-3.1,2.5-5.1V220l78.2-29.8c2.5-1,4.3-3.4,4.3-6.2v-34.7c-0.1-2.8-1.8-5.2-4.3-6.2
		l0,0L344.8,81.4c-3.4-1.3-7.2,0.4-8.5,3.8c-1.3,3.4,0.4,7.2,3.8,8.5l145.7,55.5l-102,38.9l-0.4-0.2l-124.7-56.5
		c-3.3-1.5-7.2,0-8.8,3.3c-1.5,3.3,0,7.2,3.3,8.8l113.2,51.3L256,237l-0.4-0.1L26.1,149.3L256,61.6l56.4,21.4
		c3.4,1.3,7.2-0.4,8.5-3.8c1.3-3.4-0.4-7.2-3.8-8.5l-58.7-22.4c-1.5-0.6-3.2-0.6-4.7,0L5.3,143.1c-2.5,1-4.3,3.5-4.3,6.2V184
		c0,2.8,1.7,5.2,4.2,6.2L83.5,220v27.1c0,3.6,3,6.6,6.6,6.6s6.6-3,6.6-6.6V225l157,59.8c0.9,0.3,1.6,0.4,2.3,0.4
		c0.7,0,1.5-0.1,2.4-0.4L377,239.6V362l-0.5,0.3c-37.2,19.5-78.8,29.8-120.5,29.8c-57.3,0-113.7-19.4-158.9-54.5l-0.4-0.3v-59.8
		c0-3.6-3-6.6-6.6-6.6s-6.6,3-6.6,6.6v63c0,2,0.9,3.9,2.4,5.1c47.9,38.5,108.3,59.7,170.1,59.7c41,0,82.4-9.6,119.6-27.8L377,376.8z
		 M383.6,451.9c-8.1,0-14.7-6.6-14.7-14.7s6.6-14.7,14.7-14.7s14.7,6.6,14.7,14.7S391.7,451.9,383.6,451.9z M383.6,424.5
		c-7,0-12.7,5.7-12.7,12.7s5.7,12.7,12.7,12.7c7,0,12.7-5.7,12.7-12.7S390.6,424.5,383.6,424.5z M390.2,354.6v-120l25.1-9.6v112.2
		l-0.4,0.3c-7.2,5.6-15,11.1-23.2,16.1L390.2,354.6z M392.2,236v115c7.4-4.6,14.5-9.6,21.1-14.7V228L392.2,236z M262.6,269.2v-20.5
		L377,204.9v20.5L262.6,269.2z M264.6,250v16.3L375,224.1v-16.3L264.6,250z M249.4,269.1L14.2,179.5v-20.6l1.4,0.5l233.8,89.1V269.1
		z M16.2,178.1l231.2,88v-16.3L16.2,161.8V178.1z M390.2,220.5v-20.5l107.6-41.1v20.5l-0.6,0.2L390.2,220.5z M392.2,201.3v16.3
		L495.8,178v-16.3L392.2,201.3z"/>
</g>
</svg>
