<?xml version="1.0" encoding="utf-8"?>
<!-- Generator: Adobe Illustrator 21.0.0, SVG Export Plug-In . SVG Version: 6.00 Build 0)  -->
<svg version="1.1" id="Capa_1" xmlns="http://www.w3.org/2000/svg" xmlns:xlink="http://www.w3.org/1999/xlink" x="0px" y="0px"
	 width="624px" height="627px"  viewBox="0 0 624 627" style="enable-background:new 0 0 624 627;fill:#003e7b" xml:space="preserve">
<g>
	<g>
		<g>
			<path d="M594.6,192.9c-32.3-75.2-87.1-129.9-162.9-162.3C393.7,14.4,354,6.2,312.5,6.2c-41.5,0-80.9,8.2-118.8,24.4
				C118.5,62.9,63.4,117.5,31.1,192.9C14.9,230.6,7,270.2,7,311.7c0,41.5,7.9,81.4,24.1,119.1c32.3,75.3,87.4,130.3,162.6,162.6
				c37.9,16.2,77.3,24.4,118.8,24.4s81.2-8.3,119.1-24.4c75.9-32.4,130.7-87.4,163-162.6c16.2-37.9,24.4-77.6,24.4-119.1
				C619,270.2,610.8,230.8,594.6,192.9z M545.7,446.9c-24,41.2-56.9,73.9-98.4,98c-41.2,24-86.3,36.1-134.8,36.1
				c-36.5,0-71.3-7-104.4-21.4c-33.1-14.4-61.7-33.3-85.7-57.2c-23.9-23.9-43-52.8-57.2-86C51,383.3,44.1,348.1,44.1,311.7
				c0-48.5,11.9-93.4,35.8-134.5c24-41.2,56.9-73.9,98-98C219.1,55,264,43,312.5,43c48.5,0,93.6,12.1,134.8,36.1
				c41.4,24.2,74.3,56.9,98.4,98c24.1,41.2,36.1,86,36.1,134.5C581.9,360.2,569.9,405.4,545.7,446.9z"/>
			<path d="M312.5,618.8c-41.2,0-81.3-8.2-119.2-24.5c-75.8-32.5-130.6-87.4-163.1-163.1C14.1,393.8,6,353.6,6,311.7
				c0-41.7,8.1-81.8,24.2-119.2C62.6,117,117.4,62.2,193.3,29.7c37.9-16.3,78-24.5,119.2-24.5c41.2,0,81.4,8.2,119.5,24.5
				c76,32.4,131,87.2,163.5,162.8c16.3,37.9,24.5,78,24.5,119.2c0,41.4-8.2,81.6-24.5,119.5c-32.6,75.9-87.6,130.8-163.5,163.1
				C393.9,610.6,353.7,618.8,312.5,618.8z M312.5,7.2c-40.9,0-80.7,8.2-118.4,24.3C118.7,63.8,64.2,118.3,32,193.3
				c-15.9,37.1-24,77-24,118.4c0,41.6,8.1,81.6,24,118.7c32.3,75.3,86.8,129.8,162.1,162.1c37.7,16.2,77.5,24.3,118.4,24.3
				c40.9,0,80.8-8.2,118.7-24.3c75.4-32.2,130.1-86.7,162.4-162.1c16.2-37.7,24.3-77.6,24.3-118.7c0-40.9-8.2-80.7-24.3-118.4v0
				c-32.2-75.1-86.9-129.5-162.4-161.8C393.3,15.4,353.4,7.2,312.5,7.2z M312.5,582c-36.7,0-72-7.2-104.8-21.5
				c-33.5-14.5-62.4-33.8-86-57.4c-23.7-23.7-43-52.7-57.4-86.3c-14-32.7-21.2-68.1-21.2-105.1c0-48.6,12.1-94,35.9-135
				c23.9-41,57-74.1,98.4-98.4C218.6,54.2,264,42,312.5,42c48.5,0,94.1,12.2,135.3,36.3c41.4,24.2,74.7,57.3,98.7,98.4
				c24.1,41.1,36.3,86.5,36.3,135c0,48.8-12.2,94.4-36.3,135.7l0,0c-23.9,41.1-57.2,74.2-98.7,98.4C406.6,569.8,361,582,312.5,582z
				 M312.5,44c-48.1,0-93.2,12.1-134,36c-41.1,24.1-74,56.9-97.7,97.7c-23.7,40.7-35.7,85.8-35.7,134c0,36.8,7.1,71.9,21,104.3
				c14.3,33.3,33.5,62.2,57,85.7c23.4,23.4,52.1,42.6,85.4,57c32.6,14.2,67.6,21.3,104,21.3c48.2,0,93.4-12.1,134.3-36
				c41.3-24.1,74.3-56.9,98-97.7l0,0c23.9-41,36-86.3,36-134.7c0-48.1-12.1-93.2-36-134C521,136.8,488,104,446.8,80
				C405.9,56.1,360.7,44,312.5,44z"/>
		</g>
		<g>
			<path d="M331.9,309V135.7c0-10.4-9-18.7-19.4-18.7c-9.7,0-18.4,8.4-18.4,18.7v176c0,0.3,0.7,1.7,0.7,2.7c-0.7,6,1,11,5,15.1
				l100.1,100c6.7,6.7,19.1,6.7,25.8,0c7.7-7.7,7.2-18.9,0-26.1L331.9,309z"/>
			<path d="M412.7,435.5c-5.3,0-10.2-1.9-13.6-5.3l-100.1-100c-4.2-4.2-6-9.5-5.3-15.8c0-0.5-0.3-1.1-0.4-1.6
				c-0.2-0.4-0.3-0.7-0.3-1v-176c0-10.7,8.9-19.7,19.4-19.7c11.1,0,20.4,9,20.4,19.7v172.9l93.4,94.1c7.8,7.9,7.8,19.7,0,27.5
				C422.9,433.5,418,435.5,412.7,435.5z M312.5,117.9c-9.4,0-17.4,8.1-17.4,17.7v176c0,0,0.1,0.2,0.1,0.4c0.2,0.6,0.5,1.5,0.5,2.3
				l0,0.1c-0.6,5.8,0.9,10.4,4.7,14.2l100.1,100c3,3,7.4,4.7,12.2,4.7c4.7,0,9.2-1.7,12.2-4.7c7-7,7-17.6,0-24.7l-94-94.7V135.7
				C330.9,126,322.5,117.9,312.5,117.9z"/>
		</g>
	</g>
</g>
</svg>
