<?xml version="1.0" encoding="utf-8"?>
<!-- Generator: Adobe Illustrator 21.0.0, SVG Export Plug-In . SVG Version: 6.00 Build 0)  -->
<svg version="1.1" id="Layer_1" xmlns="http://www.w3.org/2000/svg" xmlns:xlink="http://www.w3.org/1999/xlink" x="0px" y="0px"
	 width="512px" height="512px" viewBox="0 0 512 512" style="enable-background:new 0 0 512 512;" xml:space="preserve">
<g>
	<g>
		<g>
			<path d="M503.7,231.9c-28.7-36.8-66-67.3-107.6-88.1c-42.5-21.2-88.3-32.3-136.1-32.8c-1.3,0-6.6,0-7.9,0
				c-47.8,0.6-93.6,11.6-136.1,32.8C74.3,164.6,37,195.1,8.3,231.9c-11.1,14.2-11.1,34,0,48.2c28.7,36.8,66,67.3,107.6,88.1
				c42.5,21.2,88.3,32.3,136.1,32.8c1.3,0,6.6,0,7.9,0c47.8-0.6,93.6-11.6,136.1-32.8c41.7-20.8,78.9-51.3,107.6-88.1
				C514.8,265.9,514.8,246.1,503.7,231.9z M125.2,349.6c-38.9-19.4-73.7-47.9-100.5-82.3c-5.2-6.7-5.2-15.9,0-22.6
				c26.8-34.4,61.6-62.9,100.5-82.3c11.1-5.5,22.3-10.3,33.8-14.3c-29.6,26.6-48.2,65.1-48.2,107.9c0,42.8,18.6,81.3,48.2,107.9
				C147.6,359.9,136.3,355.1,125.2,349.6z M256,380.3c-68.5,0-124.3-55.8-124.3-124.3S187.5,131.7,256,131.7S380.3,187.5,380.3,256
				S324.5,380.3,256,380.3z M487.3,267.3c-26.8,34.4-61.6,62.9-100.5,82.3c-11,5.5-22.3,10.3-33.8,14.3
				c29.6-26.6,48.2-65.1,48.2-107.9c0-42.8-18.6-81.4-48.2-107.9c11.5,4,22.8,8.8,33.9,14.3c38.9,19.4,73.7,47.9,100.5,82.3
				C492.5,251.4,492.5,260.6,487.3,267.3z"/>
			<path d="M256,402.1c-1.7,0-3.3,0-4,0c-48-0.6-93.9-11.7-136.5-32.9c-41.8-20.9-79.2-51.4-108-88.4c-11.4-14.6-11.4-34.9,0-49.4
				c28.8-37,66.2-67.5,108-88.4c42.6-21.3,88.6-32.4,136.5-32.9c1.3,0,6.6,0,8,0c48,0.6,93.9,11.7,136.5,32.9
				c41.8,20.9,79.2,51.4,108,88.4c11.4,14.6,11.4,34.9,0,49.4c-28.8,37-66.2,67.5-108,88.4c-42.6,21.3-88.6,32.4-136.5,32.9
				C259.3,402.1,257.7,402.1,256,402.1z M256,111.9c-1.6,0-3.3,0-3.9,0c-47.7,0.6-93.3,11.6-135.7,32.7
				c-41.5,20.7-78.6,51.1-107.3,87.8c-10.8,13.8-10.8,33.1,0,47c28.6,36.7,65.7,67.1,107.3,87.8c42.4,21.1,88,32.2,135.7,32.7
				c1.3,0,6.6,0,7.9,0c47.7-0.6,93.3-11.6,135.7-32.7c41.5-20.7,78.7-51.1,107.3-87.8c10.8-13.8,10.8-33.2,0-47
				c-28.6-36.7-65.7-67.1-107.3-87.8c-42.4-21.1-88-32.2-135.7-32.7C259.3,111.9,257.6,111.9,256,111.9z M256,381.3
				c-69.1,0-125.3-56.2-125.3-125.3c0-69.1,56.2-125.3,125.3-125.3S381.3,186.9,381.3,256C381.3,325.1,325.1,381.3,256,381.3z
				 M256,132.7c-68,0-123.3,55.3-123.3,123.3c0,68,55.3,123.3,123.3,123.3S379.3,324,379.3,256C379.3,188,324,132.7,256,132.7z
				 M163.5,366.5l-4.7-1.7c-11.5-4.1-23-8.9-34-14.4C85.7,331,50.9,302.4,23.9,267.9c-5.5-7-5.5-16.8,0-23.8
				c26.9-34.5,61.8-63.1,100.9-82.6c11-5.5,22.4-10.3,34-14.4l4.7-1.7l-3.7,3.3c-30.4,27.4-47.9,66.4-47.9,107.2
				c0,40.8,17.5,79.8,47.9,107.2L163.5,366.5z M154.8,150.7c-9.9,3.7-19.7,7.9-29.1,12.6c-38.8,19.4-73.4,47.7-100.2,82
				c-4.9,6.3-4.9,15.1,0,21.4c26.7,34.3,61.4,62.7,100.2,82l0,0c9.5,4.7,19.2,9,29.1,12.6c-28.6-27.5-44.9-65.6-44.9-105.3
				C109.9,216.3,126.2,178.2,154.8,150.7z M348.6,366.5l3.7-3.3c30.4-27.4,47.8-66.4,47.8-107.2c0-40.8-17.5-79.8-47.9-107.2
				l-3.7-3.3l4.7,1.7c11.5,4.1,23,8.9,34,14.4c39.1,19.5,73.9,48.1,100.9,82.6c5.5,7,5.5,16.8,0,23.8l0,0
				c-26.9,34.5-61.8,63.1-100.9,82.6c-10.9,5.4-22.3,10.3-33.9,14.3L348.6,366.5z M357.2,150.7c28.6,27.5,45,65.6,45,105.3
				c0,39.7-16.3,77.8-44.9,105.3c10-3.7,19.7-7.9,29.1-12.6c38.8-19.4,73.4-47.7,100.2-82l0,0c4.9-6.3,4.9-15.1,0-21.4
				c-26.7-34.3-61.4-62.7-100.2-82C376.8,158.6,367.1,154.3,357.2,150.7z"/>
		</g>
	</g>
</g>
<g>
	<g>
		<g>
			<path d="M256,202.8c-29.3,0-53.2,23.9-53.2,53.2s23.9,53.2,53.2,53.2s53.2-23.9,53.2-53.2C309.2,226.7,285.3,202.8,256,202.8z
				 M256,288.4c-17.8,0-32.4-14.5-32.4-32.4c0-17.8,14.5-32.4,32.4-32.4c17.8,0,32.4,14.5,32.4,32.4
				C288.4,273.8,273.8,288.4,256,288.4z"/>
			<path d="M256,310.2c-29.9,0-54.2-24.3-54.2-54.2c0-29.9,24.3-54.2,54.2-54.2c14.5,0,28.1,5.6,38.3,15.9
				c10.2,10.2,15.9,23.9,15.9,38.3C310.2,285.9,285.9,310.2,256,310.2z M256,203.8c-28.8,0-52.2,23.4-52.2,52.2s23.4,52.2,52.2,52.2
				s52.2-23.4,52.2-52.2c0-13.9-5.4-27-15.3-36.9C283,209.2,269.9,203.8,256,203.8z M256,289.4c-18.4,0-33.4-15-33.4-33.4
				c0-18.4,15-33.4,33.4-33.4c18.4,0,33.4,15,33.4,33.4c0,8.9-3.5,17.3-9.8,23.6C273.3,285.9,264.9,289.4,256,289.4z M256,224.6
				c-17.3,0-31.4,14.1-31.4,31.4c0,17.3,14.1,31.4,31.4,31.4c8.4,0,16.2-3.3,22.2-9.2c5.9-5.9,9.2-13.8,9.2-22.2
				C287.4,238.7,273.3,224.6,256,224.6z"/>
		</g>
	</g>
</g>
</svg>
