<?xml version="1.0" encoding="utf-8"?>
<!-- Generator: Adobe Illustrator 21.0.0, SVG Export Plug-In . SVG Version: 6.00 Build 0)  -->
<svg version="1.1" id="Layer_1" xmlns="http://www.w3.org/2000/svg" xmlns:xlink="http://www.w3.org/1999/xlink" x="0px" y="0px"
	 viewBox="0 0 404 512" style="enable-background:new 0 0 404 512;" xml:space="preserve">
<g id="XMLID_1761_">
	<g id="XMLID_346_">
		<path id="XMLID_909_" d="M370,0h-92.8H126.8H34C15.3,0,0,15.3,0,34v444c0,18.7,15.3,34,34,34h336c18.7,0,34-15.3,34-34V34
			C404,15.3,388.7,0,370,0z M267.2,20v40.8c0,6.2-5,11.3-11.3,11.3H148.1c-6.2,0-11.3-5-11.3-11.3V20H267.2z M384,478
			c0,7.7-6.3,14-14,14H34c-7.7,0-14-6.3-14-14V34c0-7.7,6.3-14,14-14h82.8v20H70c-16.5,0-30,13.5-30,30v372c0,16.5,13.5,30,30,30
			h48.2c5.5,0,10-4.5,10-10s-4.5-10-10-10H70c-5.5,0-10-4.5-10-10V70c0-5.5,4.5-10,10-10h46.8v0.8c0,17.2,14,31.3,31.3,31.3h107.8
			c17.2,0,31.3-14,31.3-31.3V60H334c5.5,0,10,4.5,10,10v319h-33c-16.5,0-30,13.5-30,30v33H98.2c-5.5,0-10,4.5-10,10s4.5,10,10,10
			H291c2.7,0,5.2-1.1,7.1-2.9l63-63c1.9-1.9,2.9-4.4,2.9-7.1V70c0-16.5-13.5-30-30-30h-46.8V20H370c7.7,0,14,6.3,14,14V478z
			 M329.9,409L301,437.9V419c0-5.5,4.5-10,10-10H329.9z"/>
		<path id="XMLID_912_" d="M138.3,228.9l-31,31l-9.3-9.3c-3.9-3.9-10.2-3.9-14.1,0c-3.9,3.9-3.9,10.2,0,14.1l16.4,16.4
			c2,2,4.5,2.9,7.1,2.9s5.1-1,7.1-2.9l38-38.1c3.9-3.9,3.9-10.2,0-14.1C148.6,225,142.2,225,138.3,228.9z"/>
		<path id="XMLID_913_" d="M191.8,283.9h50.8c5.5,0,10-4.5,10-10s-4.5-10-10-10h-50.8c-5.5,0-10,4.5-10,10S186.2,283.9,191.8,283.9z
			"/>
		<path id="XMLID_914_" d="M191.8,243.9h101.6c5.5,0,10-4.5,10-10s-4.5-10-10-10H191.8c-5.5,0-10,4.5-10,10S186.2,243.9,191.8,243.9
			z"/>
		<path id="XMLID_915_" d="M152.5,321.9c-3.9-3.9-10.2-3.9-14.1,0l-31,31l-9.3-9.3c-3.9-3.9-10.2-3.9-14.1,0
			c-3.9,3.9-3.9,10.2,0,14.1l16.4,16.4c2,2,4.5,2.9,7.1,2.9s5.1-1,7.1-2.9l38-38C156.4,332.1,156.4,325.8,152.5,321.9z"/>
		<path id="XMLID_916_" d="M242.5,376.9c5.5,0,10-4.5,10-10s-4.5-10-10-10h-50.8c-5.5,0-10,4.5-10,10s4.5,10,10,10H242.5z"/>
		<path id="XMLID_917_" d="M191.8,336.9h101.6c5.5,0,10-4.5,10-10s-4.5-10-10-10H191.8c-5.5,0-10,4.5-10,10S186.2,336.9,191.8,336.9
			z"/>
		<path id="XMLID_918_" d="M100.3,186.9c1.9,1.9,4.4,2.9,7.1,2.9s5.2-1.1,7.1-2.9l38-38.1c3.9-3.9,3.9-10.2,0-14.1
			c-3.9-3.9-10.2-3.9-14.1,0l-31,31l-9.3-9.3c-3.9-3.9-10.2-3.9-14.1,0c-3.9,3.9-3.9,10.2,0,14.1L100.3,186.9z"/>
		<path id="XMLID_926_" d="M191.8,189.7h50.8c5.5,0,10-4.5,10-10s-4.5-10-10-10h-50.8c-5.5,0-10,4.5-10,10S186.2,189.7,191.8,189.7z
			"/>
		<path id="XMLID_927_" d="M191.8,149.7h101.6c5.5,0,10-4.5,10-10s-4.5-10-10-10H191.8c-5.5,0-10,4.5-10,10S186.2,149.7,191.8,149.7
			z"/>
	</g>
</g>
</svg>
