<?xml version="1.0" encoding="utf-8"?>
<!-- Generator: Adobe Illustrator 21.0.0, SVG Export Plug-In . SVG Version: 6.00 Build 0)  -->
<svg version="1.1" id="Capa_1" xmlns="http://www.w3.org/2000/svg" xmlns:xlink="http://www.w3.org/1999/xlink" x="0px" y="0px"
	 width="470px" height="470px" viewBox="0 0 470 470" style="enable-background:new 0 0 470 470;" xml:space="preserve">
<g>
	<path d="M360.8,384.3c1.7-1.4,2.8-3.5,2.8-5.8v-341c0-4.1-3.4-7.5-7.5-7.5h-217c-5.4-17.4-21.5-30-40.6-30
		C79.7,0,63.3,12.5,57.9,30H41.4c-8.3,0-15,6.7-15,15v409c0,8.8,7.2,16,16,16h229.7c2.4,0,4.5-1.1,5.9-2.8L360.8,384.3z
		 M279.6,436.1v-41.3c0-4.9,4-8.9,8.9-8.9h42c2.8,0,4.1,3.3,2.2,5.3l-47.2,47.2C283.3,440.7,279.6,439.1,279.6,436.1z M98.5,15
		c10.7,0,19.9,6.1,24.5,15H74C78.6,21.1,88,15,98.5,15z M49.2,45H126l0,52.1c0,6.5-4.8,12.2-11.3,12.8c-7.4,0.7-13.7-5.2-13.7-12.4
		l0-29.7c0-4.1-3.2-7.7-7.3-7.8c-4.2-0.1-7.7,3.3-7.7,7.5v29.4c0,15,11.7,27.6,26.7,28.1c15.5,0.5,28.3-12,28.3-27.5V45h200.1
		c4.1,0,7.5,3.3,7.5,7.5V371h-71.8c-6.7,0-12.2,5.5-12.2,12.2V455H48.2c-3.8,0-6.8-3.1-6.8-6.8V52.8C41.4,48.5,44.9,45,49.2,45z"/>
	<path d="M296.1,345.5c4.1,0,7.5-3.4,7.5-7.5s-3.4-7.5-7.5-7.5H93.9c-4.1,0-7.5,3.4-7.5,7.5s3.4,7.5,7.5,7.5H296.1z"/>
	<path d="M93.9,300.5h202.3c4.1,0,7.5-3.4,7.5-7.5s-3.4-7.5-7.5-7.5H93.9c-4.1,0-7.5,3.4-7.5,7.5S89.7,300.5,93.9,300.5z"/>
	<path d="M93.9,255.5h202.3c4.1,0,7.5-3.4,7.5-7.5s-3.4-7.5-7.5-7.5H93.9c-4.1,0-7.5,3.4-7.5,7.5S89.7,255.5,93.9,255.5z"/>
	<path d="M93.9,210.5h202.3c4.1,0,7.5-3.4,7.5-7.5s-3.4-7.5-7.5-7.5H93.9c-4.1,0-7.5,3.4-7.5,7.5S89.7,210.5,93.9,210.5z"/>
	<path d="M93.9,165.5h202.3c4.1,0,7.5-3.4,7.5-7.5s-3.4-7.5-7.5-7.5H93.9c-4.1,0-7.5,3.4-7.5,7.5S89.7,165.5,93.9,165.5z"/>
	<path d="M396.1,30l-39.7,0c-4.1,0-7.7,3.2-7.8,7.3c-0.1,4.2,3.3,7.7,7.5,7.7h25.7c3.8,0,6.8,3.1,6.8,6.8v394.4
		c0,4.9-3.9,8.8-8.8,8.8H272.4c-4.1,0-7.7,3.2-7.8,7.3c-0.1,4.2,3.3,7.7,7.5,7.7h124c4.1,0,7.5-3.4,7.5-7.5v-425
		C403.6,33.4,400.3,30,396.1,30z"/>
	<path d="M427.9,30l-34.1,0c-4.1,0-7.7,3.2-7.8,7.3c-0.1,4.2,3.3,7.7,7.5,7.7h28.3c3.8,0,6.8,3.1,6.8,6.8v394.3
		c0,4.9-3.9,8.8-8.8,8.8h-26c-4.1,0-7.7,3.2-7.8,7.3c-0.1,4.2,3.3,7.7,7.5,7.7h42.6c4.2,0,7.5-3.4,7.5-7.5V45.7
		C443.6,37,436.6,30,427.9,30z"/>
</g>
</svg>
