<?xml version="1.0" encoding="utf-8"?>
<!-- Generator: Adobe Illustrator 21.0.0, SVG Export Plug-In . SVG Version: 6.00 Build 0)  -->
<svg version="1.1" id="Capa_1" xmlns="http://www.w3.org/2000/svg" xmlns:xlink="http://www.w3.org/1999/xlink" x="0px" y="0px"
	 width="512px" height="512px" viewBox="0 0 512 512" style="enable-background:new 0 0 512 512;" xml:space="preserve">
<g>
	<g>
		<path d="M379.2,180h-1.5l-21.1-50.4v-0.3c1.1,0,2.1,0,3.2-0.1c4.1-0.2,7.3-3.7,7.2-7.8c-0.2-4.1-3.7-7.3-7.8-7.2
			c-0.8,0-1.7,0-2.5,0.1v-2.9c0-4.1-3.4-7.5-7.5-7.5s-7.5,3.4-7.5,7.5v1.5c-30.4-6.1-30.5-23-52.7-23h-1.3
			c-2.4-6.8-7.8-12.2-14.6-14.5v-4.8c0-4.1-3.4-7.5-7.5-7.5s-7.5,3.4-7.5,7.5v4.8c-6.8,2.3-12.3,7.7-14.6,14.6
			c-0.6,0.1-12.3-1.1-22.8,7.8c-6.7,5.7-16.9,12.2-30.6,15.1v-1.4c0-4.1-3.4-7.5-7.5-7.5s-7.5,3.4-7.5,7.5v2.9
			c-4.1,0.1-7.3,3.4-7.3,7.5s3.3,7.4,7.3,7.5v0.2L153.7,180c-0.6,0.1-5-0.7-8.6,3c-3.6,3.8-2.9,8.2-2,14.2c1.3,7.9,6.4,15.1,14.5,19
			c3.7,1.8,6.6,6.1,13.7,6.1h21.8c5.2,0,8.9-2.8,9.6-3.4c2.1-1.7,2.5-1.9,4.3-2.9c10.6-5.1,14.6-14.4,15.1-26
			c0.1-5.9-4.5-10.2-9.8-10.2h-1.5l-21.1-50.4v-1.5c19.5-3.4,33.2-12.8,40.4-18.9c5.7-4.9,12.6-4.2,13-4.2c2.3,7,7.8,12.5,14.7,14.8
			v77.9c-15,1-24.8,16.4-19.2,30.4c-9.4,2.6-16.2,11.3-16.2,21.4c0,12.3,10,22.3,22.3,22.3h42c12.3,0,22.3-10,22.3-22.3
			c0-10.4-7.2-19.2-16.8-21.6c5.4-14-4.4-29.2-19.3-30.2v-77.9c6.9-2.4,12.4-7.9,14.7-14.8c0.5,0.1,7.1-0.7,12.9,4.2
			c7.2,6.1,21.2,15.7,41,19v1.4L320.5,180c-0.6,0.1-5-0.7-8.6,3c-3.1,3.2-2.7,7.3-2.7,7.2c0,12.9,6.1,21.7,15.2,26.1
			c3.9,1.8,6.6,6.1,13.7,6.1H360c6.8,0,9.1-3.8,13.9-6.2c10.7-5.1,14.6-14.4,15.1-26C389.2,184.7,384.8,180,379.2,180z M171.3,207.4
			L171.3,207.4c0,0,0.2,0.2,0.2,0.2C171.4,207.6,171.3,207.5,171.3,207.4z M193.3,207.4C193.2,207.5,193.2,207.4,193.3,207.4
			c-32.1-0.1-16.4,1.3-29.3-4.8c-3.1-1.5-5.4-4.3-6-7.6h48.7C205.2,202.2,199.6,202,193.3,207.4z M194.6,180h-24.7l12.3-29.5
			L194.6,180z M294,249.6c0,4-3.3,7.3-7.3,7.3h-42c-4,0-7.3-3.3-7.3-7.3s3.3-7.3,7.3-7.3c15.6,0,28,0,42,0
			C290.8,242.3,294,245.6,294,249.6z M278.7,220c0,4-3.3,7.3-7.3,7.3h-12c-4,0-7.3-3.3-7.3-7.3s3.3-7.3,7.3-7.3h12
			C275.4,212.7,278.7,216,278.7,220z M265.4,106.1c-4.6,0-8.4-3.8-8.4-8.4c0-4.6,3.8-8.4,8.4-8.4s8.4,3.8,8.4,8.4
			C273.8,102.3,270.1,106.1,265.4,106.1z M349.1,150.5l12.3,29.5h-24.7L349.1,150.5z M338.1,207.4c0.3,0.2,0.2,0.2,0.2,0.2
			C338.3,207.6,338.2,207.5,338.1,207.4z M360.1,207.4C360.1,207.5,360,207.4,360.1,207.4c-28.4-0.1-18.9,1.2-27.1-3.6
			c-3.6-2-7.2-3.6-8.2-8.8h48.7C372,202.2,366.1,202.2,360.1,207.4z"/>
	</g>
</g>
<g>
	<g>
		<path d="M336.1,303.8H194.8c-4.1,0-7.5,3.4-7.5,7.5s3.4,7.5,7.5,7.5h141.3c4.1,0,7.5-3.4,7.5-7.5S340.2,303.8,336.1,303.8z"/>
	</g>
</g>
<g>
	<g>
		<path d="M336.1,335.3H194.8c-4.1,0-7.5,3.4-7.5,7.5s3.4,7.5,7.5,7.5h141.3c4.1,0,7.5-3.4,7.5-7.5S340.2,335.3,336.1,335.3z"/>
	</g>
</g>
<g>
	<g>
		<path d="M336.1,366.8H194.8c-4.1,0-7.5,3.4-7.5,7.5s3.4,7.5,7.5,7.5h141.3c4.1,0,7.5-3.4,7.5-7.5S340.2,366.8,336.1,366.8z"/>
	</g>
</g>
<g>
	<g>
		<path d="M465.5,403c4.1,0,7.5-3.4,7.5-7.5V25.1C473,11.2,461.7,0,447.9,0C431.7,0,98.2,0,81.8,0C58.1,0,39,19.7,39,42.4
			c0,25.5,0,402.5,0,427.1c0,22.9,19.6,42.5,42.8,42.5h276.5c4.1,0,7.5-3.4,7.5-7.5s-3.4-7.5-7.5-7.5c-0.1,0-276.3-0.2-276.5-0.2
			c-21.8,0-36.4-25-22.1-43.6c4.8-6.3,12.2-10.5,20.7-11c1.2-0.1,29.6,0,29.7,0v31.1c0,8.3,9.1,13.3,16.1,8.9l17.1-10.8l16.8,10.7
			c7.1,4.5,16.4-0.6,16.4-9v-30.8h243.5V497h-64.7c-4.1,0-7.5,3.4-7.5,7.5s3.4,7.5,7.5,7.5c10.7,0,79.1,0,90.9,0
			c14.7,0,26.7-12,26.7-26.7c0-11.4,0-85.3,0-93.5c0-4.1-3.4-7.5-7.5-7.5s-7.5,3.4-7.5,7.5v23.7c0,5.2-3.5,9.7-8.2,11.1
			c-2.8,0.9-351.2,0.5-358,0.5V93.7c0-4.1-3.4-7.5-7.5-7.5s-7.5,3.4-7.5,7.5v333.7c-8.6,1-16.5,4.7-22.7,10
			c0.9-404-2.9-397.6,4.1-409.1c4.1-6.7,10.9-11.5,18.7-12.9v80.7c0,4.1,3.4,7.5,7.5,7.5s7.5-3.4,7.5-7.5V15h356.1
			c5.5,0,10.1,4.5,10.1,10.1v370.4C458,399.6,461.3,403,465.5,403z M435.1,442.1L435.1,442.1c7.8-0.5,14.5,1.4,22.9-2.7v45.8
			c0,6.5-5.3,11.7-11.7,11.7h-11.1L435.1,442.1L435.1,442.1z M125.1,442.1h36.4v22.9c-9.9-5.8-12.3-9.2-18.2-9.2
			c-5.9,0-8.3,3.5-18.2,9.2L125.1,442.1L125.1,442.1z"/>
	</g>
</g>
</svg>
