<?xml version="1.0" encoding="utf-8"?>
<!-- Generator: Adobe Illustrator 21.0.0, SVG Export Plug-In . SVG Version: 6.00 Build 0)  -->
<svg version="1.1" id="Слой_1" xmlns="http://www.w3.org/2000/svg" xmlns:xlink="http://www.w3.org/1999/xlink" x="0px" y="0px"
	 viewBox="0 0 512 512" style="enable-background:new 0 0 512 512;" xml:space="preserve">
<path d="M434.5,0H77.7c-4.3,0-7.8,3.5-7.8,7.8c0,4.3,3.5,7.8,7.8,7.8h356.9c13.1,0,23.8,10.7,23.8,23.8v432.3c0,4.3,3.5,7.8,7.8,7.8
	c4.3,0,7.8-3.5,7.8-7.8V39.4C473.9,17.7,456.2,0,434.5,0z"/>
<path d="M466.1,436.6c-4.3,0-7.8,3.5-7.8,7.8v28.2c0,13.1-10.7,23.8-23.8,23.8H79.4c-13.1,0-23.8-10.7-23.8-23.8V39.4
	c0-13.1,10.7-23.8,23.8-23.8h14.7c4.3,0,7.8-3.5,7.8-7.8c0-4.3-3.5-7.8-7.8-7.8H79.4C57.7,0,40,17.7,40,39.4v433.3
	c0,21.7,17.7,39.4,39.4,39.4h355.2c21.7,0,39.4-17.7,39.4-39.4v-28.2C473.9,440.1,470.4,436.6,466.1,436.6z"/>
<path d="M148.6,50.4c-32.7,0-59.2,26.6-59.2,59.2c0,32.7,26.6,59.2,59.2,59.2c32.7,0,59.2-26.6,59.2-59.2
	C207.8,76.9,181.3,50.4,148.6,50.4z M148.6,153.2c-24.1,0-43.6-19.6-43.6-43.6c0-24.1,19.6-43.6,43.6-43.6s43.6,19.6,43.6,43.6
	C192.2,133.6,172.7,153.2,148.6,153.2z"/>
<path d="M244.2,80.5h170.1c4.3,0,7.8-3.5,7.8-7.8c0-4.3-3.5-7.8-7.8-7.8H244.2c-4.3,0-7.8,3.5-7.8,7.8
	C236.4,77,239.9,80.5,244.2,80.5z"/>
<path d="M244.2,117.4h123.1c4.3,0,7.8-3.5,7.8-7.8c0-4.3-3.5-7.8-7.8-7.8H244.2c-4.3,0-7.8,3.5-7.8,7.8
	C236.4,113.9,239.9,117.4,244.2,117.4z"/>
<path d="M244.2,154.3h148.5c4.3,0,7.8-3.5,7.8-7.8c0-4.3-3.5-7.8-7.8-7.8H244.2c-4.3,0-7.8,3.5-7.8,7.8
	C236.4,150.8,239.9,154.3,244.2,154.3z"/>
<path d="M244.2,227.1h170.1c4.3,0,7.8-3.5,7.8-7.8c0-4.3-3.5-7.8-7.8-7.8H244.2c-4.3,0-7.8,3.5-7.8,7.8
	C236.4,223.6,239.9,227.1,244.2,227.1z"/>
<path d="M244.2,263.9h123.1c4.3,0,7.8-3.5,7.8-7.8c0-4.3-3.5-7.8-7.8-7.8H244.2c-4.3,0-7.8,3.5-7.8,7.8
	C236.4,260.4,239.9,263.9,244.2,263.9z"/>
<path d="M244.2,300.8h148.5c4.3,0,7.8-3.5,7.8-7.8s-3.5-7.8-7.8-7.8H244.2c-4.3,0-7.8,3.5-7.8,7.8S239.9,300.8,244.2,300.8z"/>
<path d="M148.6,343.4c-32.7,0-59.2,26.6-59.2,59.2c0,32.7,26.6,59.2,59.2,59.2c32.7,0,59.2-26.6,59.2-59.2
	C207.8,370,181.3,343.4,148.6,343.4z M148.6,446.3c-24.1,0-43.6-19.6-43.6-43.6c0-24.1,19.6-43.6,43.6-43.6s43.6,19.6,43.6,43.6
	C192.2,426.7,172.7,446.3,148.6,446.3z"/>
<path d="M244.2,373.6h170.1c4.3,0,7.8-3.5,7.8-7.8s-3.5-7.8-7.8-7.8H244.2c-4.3,0-7.8,3.5-7.8,7.8S239.9,373.6,244.2,373.6z"/>
<path d="M244.2,410.4h123.1c4.3,0,7.8-3.5,7.8-7.8c0-4.3-3.5-7.8-7.8-7.8H244.2c-4.3,0-7.8,3.5-7.8,7.8
	C236.4,407,239.9,410.4,244.2,410.4z"/>
<path d="M244.2,447.3h148.5c4.3,0,7.8-3.5,7.8-7.8c0-4.3-3.5-7.8-7.8-7.8H244.2c-4.3,0-7.8,3.5-7.8,7.8
	C236.4,443.8,239.9,447.3,244.2,447.3z"/>
<path d="M137.9,244.1c-3-3-8-3-11,0s-3,8,0,11l19.3,19.3c1.5,1.5,3.5,2.3,5.5,2.3s4-0.8,5.5-2.3l40.3-40.3c0,0,0.1-0.1,0.1-0.1
	l26.7-26.7c3-3,3-8,0-11s-8-3-11,0l-20.4,20.4c-11.1-12.5-27.1-19.7-44.2-19.7c-32.7,0-59.2,26.6-59.2,59.2
	c0,32.7,26.6,59.2,59.2,59.2c32.7,0,59.2-26.6,59.2-59.2c0-4.3-3.5-7.8-7.8-7.8c-4.3,0-7.8,3.5-7.8,7.8c0,24.1-19.6,43.6-43.6,43.6
	S105,280.2,105,256.1c0-24.1,19.6-43.6,43.6-43.6c12.9,0,24.9,5.6,33.1,15.2l-30.1,30.1L137.9,244.1z"/>
</svg>
