<?xml version="1.0" encoding="utf-8"?>
<!-- Generator: Adobe Illustrator 21.0.0, SVG Export Plug-In . SVG Version: 6.00 Build 0)  -->
<svg version="1.1" id="Capa_1" xmlns="http://www.w3.org/2000/svg" xmlns:xlink="http://www.w3.org/1999/xlink" x="0px" y="0px"
	 width="508px" height="508px" viewBox="0 0 508 508" style="enable-background:new 0 0 508 508;" xml:space="preserve">
<g>
	<g>
		<path d="M376.9,14.6v3.7c0,3.5,2.8,6.4,6.4,6.4h23L237.6,193.3l-81.9-82l-100,100c-2.3,2.3-2.3,6,0,8.3l3.2,3.2
			c2.3,2.3,6,2.3,8.3,0l88.4-88.3l81.9,81.9L417.9,36.2v22.9c0,3.5,2.8,6.4,6.4,6.4h3.7c3.5,0,6.4-2.8,6.4-6.4V8.2h-51
			C379.7,8.2,376.9,11,376.9,14.6z"/>
	</g>
</g>
<g>
	<g>
		<path d="M491.6,483.4L491.6,483.4V135.3c0-6.8-5.5-12.4-12.4-12.4H422c-6.8,0-12.4,5.5-12.4,12.4v348.1h-16.4V184.5
			c0-6.8-5.5-12.4-12.4-12.4h-57.2c-6.8,0-12.4,5.5-12.4,12.4v299H295V299.2c0-6.8-5.5-12.4-12.4-12.4h-57.3
			c-6.8,0-12.4,5.5-12.4,12.4v184.2h-16.4V250c0-6.8-5.5-12.4-12.4-12.4h-57.2c-6.8,0-12.4,5.5-12.4,12.4v233.4H98.3V381.1
			c0-6.8-5.5-12.4-12.4-12.4H28.8c-6.8,0-12.4,5.5-12.4,12.4v102.3H0v16.4h508v-16.4L491.6,483.4L491.6,483.4z M82,483.4H32.8v-85.9
			c0-6.8,5.5-12.4,12.4-12.4h24.5c6.8,0,12.4,5.5,12.4,12.4L82,483.4L82,483.4z M180.3,483.4h-49.2v-217c0-6.8,5.5-12.4,12.4-12.4
			H168c6.8,0,12.4,5.5,12.4,12.4L180.3,483.4L180.3,483.4z M278.6,483.5h-49.2V315.6c0-6.8,5.5-12.4,12.4-12.4h24.5
			c6.8,0,12.4,5.5,12.4,12.4L278.6,483.5L278.6,483.5z M376.9,483.5h-49.2V200.9c0-6.8,5.5-12.4,12.4-12.4h24.5
			c6.8,0,12.4,5.5,12.4,12.4L376.9,483.5L376.9,483.5z M475.3,483.4h-49.2V151.7c0-6.8,5.5-12.4,12.4-12.4H463
			c6.8,0,12.4,5.5,12.4,12.4L475.3,483.4L475.3,483.4z"/>
	</g>
</g>
</svg>
